Coordinates
version=1
nRows=16
nColumns=40
inDegrees=yes

Units are S.I. units (second, meters, Newtons, ...)
If the header above contains a line with 'inDegrees', this indicates whether rotational values are in degrees (yes) or radians (no).

endheader
time	pelvis_tilt	pelvis_list	pelvis_rotation	pelvis_tx	pelvis_ty	pelvis_tz	hip_flexion_r	hip_adduction_r	hip_rotation_r	knee_angle_r	knee_angle_r_beta	ankle_angle_r	subtalar_angle_r	mtp_angle_r	hip_flexion_l	hip_adduction_l	hip_rotation_l	knee_angle_l	knee_angle_l_beta	ankle_angle_l	subtalar_angle_l	mtp_angle_l	lumbar_extension	lumbar_bending	lumbar_rotation	arm_flex_r	arm_add_r	arm_rot_r	elbow_flex_r	pro_sup_r	wrist_flex_r	wrist_dev_r	arm_flex_l	arm_add_l	arm_rot_l	elbow_flex_l	pro_sup_l	wrist_flex_l	wrist_dev_l
      1.90000000	      7.23918445	      0.42130613	     -6.11644863	     -0.27089060	      1.04939556	     -1.00100500	      7.97766359	     -6.91954673	     14.41816637	      6.70298597	      0.11698917	     -5.13664194	      0.00000000	      0.00000000	      2.47398406	      3.14559967	     -9.46934023	     22.81498126	      0.39819654	      2.08076435	      0.00000000	      0.00000000	    -14.30214337	     -6.18291619	     -0.02636088	     83.55143137	    -10.77679134	     66.39935215	     55.31338734	     83.78773574	      0.00000000	      0.00000000	     88.19819086	    -21.67955166	     71.36569362	     60.21306075	     80.74191542	      0.00000000	      0.00000000
      1.90500000	      7.17969913	      0.43163570	     -6.15259254	     -0.27107649	      1.04912745	     -1.00096205	      8.14374253	     -6.90809253	     14.54371941	      6.64291028	      0.11594066	     -5.06014293	      0.00000000	      0.00000000	      2.66132233	      3.12020060	     -9.55530986	     23.04586280	      0.40222618	      2.06328500	      0.00000000	      0.00000000	    -14.26732408	     -6.21364340	      0.00736696	     83.52507507	    -10.80078291	     66.32038117	     55.34806666	     83.77882537	      0.00000000	      0.00000000	     88.19449375	    -21.67464288	     71.32076353	     60.23593753	     80.43718197	      0.00000000	      0.00000000
      1.91000000	      7.16297176	      0.42912900	     -6.11448861	     -0.27128546	      1.04884417	     -1.00099329	      8.30129704	     -6.88856631	     14.48311141	      6.68123876	      0.11660961	     -5.02229305	      0.00000000	      0.00000000	      2.78535972	      3.08878315	     -9.53658708	     23.24155584	      0.40564167	      2.11867946	      0.00000000	      0.00000000	    -14.29044942	     -6.20499300	     -0.05779980	     83.58181738	    -10.77672444	     66.34305624	     55.42048790	     83.80423301	      0.00000000	      0.00000000	     88.21631166	    -21.73538663	     71.27306976	     60.29392958	     80.74380769	      0.00000000	      0.00000000
      1.91500000	      7.18387576	      0.40357849	     -6.09432896	     -0.27155631	      1.04859979	     -1.00111418	      8.43084162	     -6.85485834	     14.41658131	      6.72858995	      0.11743605	     -4.95574145	      0.00000000	      0.00000000	      2.91014941	      3.02892657	     -9.59726606	     23.52092733	      0.41051762	      2.18589556	      0.00000000	      0.00000000	    -14.37254241	     -6.17156780	     -0.07512816	     83.67561069	    -10.76711424	     66.44789117	     55.30853435	     83.76016088	      0.00000000	      0.00000000	     88.20633305	    -21.72474793	     71.22078957	     60.27736513	     80.52302476	      0.00000000	      0.00000000
      1.92000000	      7.25720236	      0.39034773	     -6.09546007	     -0.27168349	      1.04840039	     -1.00108066	      8.49612731	     -6.82271171	     14.37212286	      6.79215735	      0.11854551	     -4.88039517	      0.00000000	      0.00000000	      2.91759004	      3.00095831	     -9.59146450	     23.69921603	      0.41362935	      2.25978868	      0.00000000	      0.00000000	    -14.47929271	     -6.18544234	     -0.08626289	     83.69550287	    -10.76907626	     66.39563804	     55.32610723	     83.86050730	      0.00000000	      0.00000000	     88.24161276	    -21.73614874	     71.21403522	     60.30426905	     80.40345684	      0.00000000	      0.00000000
      1.92500000	      7.25797359	      0.38452387	     -6.07387862	     -0.27189120	      1.04805396	     -1.00105880	      8.61764465	     -6.81332251	     14.41251298	      6.78998560	      0.11850760	     -4.82305590	      0.00000000	      0.00000000	      3.02692332	      2.96332950	     -9.62075859	     23.92745354	      0.41761285	      2.40902140	      0.00000000	      0.00000000	    -14.52713014	     -6.19522264	     -0.11022254	     83.75324731	    -10.79156933	     66.39798026	     55.38058610	     83.82294618	      0.00000000	      0.00000000	     88.29558924	    -21.73820078	     71.19826906	     60.29482796	     80.27022089	      0.00000000	      0.00000000
      1.93000000	      7.24831035	      0.35745696	     -6.02989333	     -0.27214343	      1.04780778	     -1.00106255	      8.76512197	     -6.76864587	     14.32157735	      6.83651336	      0.11931967	     -4.78069307	      0.00000000	      0.00000000	      3.14334982	      2.90491760	     -9.60254478	     24.12749102	      0.42110416	      2.46153842	      0.00000000	      0.00000000	    -14.57262130	     -6.15947366	     -0.17852988	     83.78754953	    -10.72162098	     66.34460239	     55.28679609	     83.89879079	      0.00000000	      0.00000000	     88.27343637	    -21.80457368	     71.06545642	     60.36901615	     80.54159639	      0.00000000	      0.00000000
      1.93500000	      7.25410152	      0.35601340	     -6.05405107	     -0.27243209	      1.04746942	     -1.00095808	      8.92866340	     -6.73529811	     14.40550403	      6.90461816	      0.12050832	     -4.66589296	      0.00000000	      0.00000000	      3.27680892	      2.85705573	     -9.68139421	     24.39754516	      0.42581749	      2.54254604	      0.00000000	      0.00000000	    -14.62032724	     -6.18774283	     -0.14410971	     83.83944775	    -10.72342912	     66.29765861	     55.28075241	     83.85924318	      0.00000000	      0.00000000	     88.32710451	    -21.78142602	     71.14284889	     60.39795843	     80.49967936	      0.00000000	      0.00000000
      1.94000000	      7.22723425	      0.29447060	     -6.00897652	     -0.27270866	      1.04725566	     -1.00092121	      9.08320561	     -6.64994265	     14.34791043	      6.94457419	      0.12120568	     -4.67431327	      0.00000000	      0.00000000	      3.42733281	      2.74572495	     -9.72153173	     24.63448442	      0.42995286	      2.60269001	      0.00000000	      0.00000000	    -14.64984472	     -6.11618344	     -0.17935524	     83.87959136	    -10.69814450	     66.32826330	     55.21079590	     83.71250104	      0.00000000	      0.00000000	     88.34333561	    -21.80002837	     71.04755879	     60.38223835	     81.12223400	      0.00000000	      0.00000000
      1.94500000	      7.20013754	      0.30997395	     -6.03420672	     -0.27300324	      1.04696739	     -1.00081191	      9.28047673	     -6.63997396	     14.35964902	      6.99285339	      0.12204832	     -4.60578836	      0.00000000	      0.00000000	      3.57330742	      2.72791543	     -9.73441283	     24.84786129	      0.43367699	      2.65778581	      0.00000000	      0.00000000	    -14.66366509	     -6.15765489	     -0.17046173	     83.91157954	    -10.68599260	     66.29422078	     55.21015880	     83.94472173	      0.00000000	      0.00000000	     88.38075385	    -21.82194019	     71.06266463	     60.37858003	     80.36870392	      0.00000000	      0.00000000
      1.95000000	      7.19922405	      0.31718422	     -6.08694221	     -0.27316856	      1.04662156	     -1.00060761	      9.45368594	     -6.61168334	     14.34915541	      7.07009627	      0.12339646	     -4.49680391	      0.00000000	      0.00000000	      3.67213218	      2.69672499	     -9.79849736	     25.04117600	      0.43705097	      2.71620923	      0.00000000	      0.00000000	    -14.69672793	     -6.21031761	     -0.09616976	     83.91637729	    -10.73067691	     66.22109667	     55.23948639	     83.95409729	      0.00000000	      0.00000000	     88.43920917	    -21.76532042	     71.10012090	     60.34163165	     80.47332659	      0.00000000	      0.00000000
      1.95500000	      7.14052204	      0.32940998	     -6.08109658	     -0.27352505	      1.04627192	     -1.00055843	      9.68493343	     -6.58914085	     14.35931360	      7.14511720	      0.12470582	     -4.38412268	      0.00000000	      0.00000000	      3.87433700	      2.66630380	     -9.84234282	     25.29118241	      0.44141440	      2.79173831	      0.00000000	      0.00000000	    -14.69134604	     -6.22660237	     -0.11806605	     83.96333815	    -10.69665469	     66.22459971	     55.22257809	     83.84772544	      0.00000000	      0.00000000	     88.43167644	    -21.80541532	     70.93797204	     60.38590023	     80.72137307	      0.00000000	      0.00000000
      1.96000000	      7.12641643	      0.33480146	     -6.02120381	     -0.27398814	      1.04594720	     -1.00049624	      9.85057468	     -6.58879752	     14.32695344	      7.19710872	      0.12561324	     -4.34159579	      0.00000000	      0.00000000	      4.04719613	      2.62485928	     -9.83643956	     25.55841200	      0.44607844	      2.79540525	      0.00000000	      0.00000000	    -14.74588646	     -6.24251531	     -0.19836176	     84.06035812	    -10.64734014	     66.31227839	     55.16149274	     83.55278808	      0.00000000	      0.00000000	     88.48389485	    -21.83980090	     70.87734699	     60.44673202	     80.40635656	      0.00000000	      0.00000000
      1.96500000	      7.11963146	      0.32956124	     -5.96742832	     -0.27430868	      1.04561176	     -1.00053267	     10.02857522	     -6.57273177	     14.23486436	      7.28114542	      0.12707996	     -4.28872707	      0.00000000	      0.00000000	      4.18019438	      2.59156000	     -9.80424404	     25.78583216	      0.45004767	      2.91487241	      0.00000000	      0.00000000	    -14.79943184	     -6.23399471	     -0.24489754	     84.11432436	    -10.65072792	     66.32382159	     55.12192627	     83.90140981	      0.00000000	      0.00000000	     88.51691882	    -21.83993460	     70.84449780	     60.44787280	     80.49130628	      0.00000000	      0.00000000
      1.97000000	      7.08498872	      0.24573667	     -5.99371299	     -0.27450586	      1.04527328	     -1.00065708	     10.19629243	     -6.46300921	     14.26879641	      7.32582381	      0.12785975	     -4.21201662	      0.00000000	      0.00000000	      4.34280734	      2.46554742	     -9.90305857	     26.06392881	      0.45490137	      3.00688366	      0.00000000	      0.00000000	    -14.80441576	     -6.14228537	     -0.17938163	     84.18289600	    -10.68406364	     66.37506777	     55.12956637	     83.85429442	      0.00000000	      0.00000000	     88.50091531	    -21.75641143	     70.73904966	     60.32106488	     80.44178193	      0.00000000	      0.00000000
      1.97500000	      7.08998644	      0.23365168	     -5.95876698	     -0.27477563	      1.04500262	     -1.00068824	     10.35065297	     -6.45068624	     14.20226591	      7.38689248	      0.12892560	     -4.16570236	      0.00000000	      0.00000000	      4.43514912	      2.43894627	     -9.85510462	     26.22889484	      0.45778057	      3.10562752	      0.00000000	      0.00000000	    -14.87119999	     -6.12274055	     -0.26053719	     84.24269736	    -10.59703425	     66.39530188	     55.05863271	     83.74966613	      0.00000000	      0.00000000	     88.53647885	    -21.86294363	     70.74758285	     60.44444593	     80.94846446	      0.00000000	      0.00000000
